<svg height="64" viewBox="0 0 64 64" width="64" xmlns="http://www.w3.org/2000/svg"><g fill="none" fill-rule="evenodd" transform="translate(4 4)"><ellipse cx="28" cy="28.202" fill="#f5f5f5" rx="28" ry="27.798"/><path d="m28 0c15.463973 0 28 12.4455565 28 27.7979285 0 9.4460624-4.7458124 17.7916803-11.999424 22.8149921l-.000576-4.2830397c0-5.7381732-4.597117-10.410381-10.3344276-10.5846479l-.3322391-.0050392h-10.6666666c-5.7798857 0-10.4860572 4.5639404-10.6615909 10.2598457l-.0050758.3298414.0003776 4.2837001c-7.25414928-5.0232407-12.0003776-13.3691762-12.0003776-22.8156525 0-15.352372 12.536027-27.7979285 28-27.7979285zm0 10.5896871c-5.8910373 0-10.6666667 4.7411643-10.6666667 10.589687s4.7756294 10.5896871 10.6666667 10.5896871 10.6666667-4.7411644 10.6666667-10.5896871-4.7756294-10.589687-10.6666667-10.589687z" fill="#c4c4c4" fill-rule="nonzero"/></g></svg>